<?xml version="1.0" encoding="UTF-8" standalone="no"?>
<svg width="210mm" height="297mm" viewBox="0 0 210 297" id="svg8">
    <rect style="fill:#0000ff;fill-rule:evenodd;stroke-width:0.264583" id="rect10" width="92.226196" height="78.619049" x="50.648811" y="70.303574" />
    <path
       sodipodi:type="star"
       style="fill:#ffff00;fill-rule:evenodd;stroke-width:0.264583"
       id="path12"
       sodipodi:sides="5"
       sodipodi:cx="146.18229"
       sodipodi:cy="143.96169"
       sodipodi:r1="34.749149"
       sodipodi:r2="17.374575"
       sodipodi:arg1="-2.340811"
       sodipodi:arg2="-1.7124925"
       inkscape:flatsided="false"
       inkscape:rounded="0"
       inkscape:randomized="0"
       d="m 121.99182,119.01526 21.7368,7.74598 18.70387,-13.51493 -0.64983,23.06656 18.63328,13.6121 -22.13841,6.50993 -7.18787,21.92767 -13.03246,-19.0432 -23.07564,-0.06 14.08391,-18.27928 z"
       inkscape:transform-center-x="-1.5164562"
       inkscape:transform-center-y="1.8427537" >
      <path
         sodipodi:type="inkscape:box3dside"
         id="path24"
         style="fill:#d7d7ff;fill-rule:evenodd;stroke:none;stroke-width:0.882563;stroke-linejoin:round"
         inkscape:box3dsidetype="14"
         d="M 170.50887,92.957299 V 107.84281 L 160.495,99.573365 V 88.217639 Z"
         points="170.50887,107.84281 160.495,99.573365 160.495,88.217639 170.50887,92.957299 " />
      <path
         sodipodi:type="inkscape:box3dside"
         id="path26"
         style="fill:#afafde;fill-rule:evenodd;stroke:none;stroke-width:0.882563;stroke-linejoin:round"
         inkscape:box3dsidetype="13"
         d="m 157.20754,108.30492 13.30133,-0.46211 -10.01387,-8.269445 -9.864,0.698475 z"
         points="170.50887,107.84281 160.495,99.573365 150.631,100.27184 157.20754,108.30492 " />
      <path
         sodipodi:type="inkscape:box3dside"
         id="path28"
         style="fill:#e9e9ff;fill-rule:evenodd;stroke:none;stroke-width:0.882563;stroke-linejoin:round"
         inkscape:box3dsidetype="11"
         d="m 150.631,89.384945 9.864,-1.167306 v 11.355726 l -9.864,0.698475 z"
         points="160.495,88.217639 160.495,99.573365 150.631,100.27184 150.631,89.384945 " />
      <path
         sodipodi:type="inkscape:box3dside"
         id="path20"
         style="fill:#4d4d9f;fill-rule:evenodd;stroke:none;stroke-width:0.882563;stroke-linejoin:round"
         inkscape:box3dsidetype="5"
         d="m 157.20754,94.214802 13.30133,-1.257503 -10.01387,-4.73966 -9.864,1.167306 z"
         points="170.50887,92.957299 160.495,88.217639 150.631,89.384945 157.20754,94.214802 " />
      <path
         sodipodi:type="inkscape:box3dside"
         id="path18"
         style="fill:#353564;fill-rule:evenodd;stroke:none;stroke-width:0.882563;stroke-linejoin:round"
         inkscape:box3dsidetype="6"
         d="M 157.20754,94.214802 V 108.30492 L 150.631,100.27184 V 89.384945 Z"
         points="157.20754,108.30492 150.631,100.27184 150.631,89.384945 157.20754,94.214802 " />
      <path
         sodipodi:type="inkscape:box3dside"
         id="path22"
         style="fill:#8686bf;fill-rule:evenodd;stroke:none;stroke-width:0.882563;stroke-linejoin:round"
         inkscape:box3dsidetype="3"
         d="m 157.20754,94.214802 13.30133,-1.257503 v 14.885511 l -13.30133,0.46211 z"
         points="170.50887,92.957299 170.50887,107.84281 157.20754,108.30492 157.20754,94.214802 " />

</svg>
