<?xml version="1.0" encoding="iso-8859-1"?>
<!-- Generator: Adobe Illustrator 19.0.0, SVG Export Plug-In . SVG Version: 6.00 Build 0)  -->
<svg version="1.1" id="Capa_1" xmlns="http://www.w3.org/2000/svg" xmlns:xlink="http://www.w3.org/1999/xlink" x="0px" y="0px"
	 viewBox="0 0 480 480" style="enable-background:new 0 0 480 480;" xml:space="preserve">
<g>
	<g>
		<path d="M478.133,446.77l-70.148-168.371v-70.801c9.117-1.859,16-9.938,16-19.598c0-11.027-8.969-20-20-20h-104
			c-11.031,0-20,8.973-20,20c0,9.66,6.883,17.738,16,19.598v70.801L225.828,446.77c-2.319,5.566-2.442,11.692-0.48,17.23H16V64h208
			v56c0,4.418,3.578,8,8,8h56v24h16v-32h-0.073c-0.001-2.079-0.742-4.127-2.271-5.656l-64-64c-1.53-1.533-3.576-2.27-5.656-2.27V48
			H8c-4.422,0-8,3.582-8,8v416c0,4.418,3.578,8,8,8h239.984h208c8.039,0,15.508-3.996,19.969-10.684
			C480.414,462.625,481.227,454.195,478.133,446.77z M240,75.313L276.688,112H240V75.313z M311.367,283.078
			c0.406-0.977,0.617-2.023,0.617-3.078v-80c0-4.418-3.578-8-8-8h-4c-2.203,0-4-1.793-4-4s1.797-4,4-4h104c2.203,0,4,1.793,4,4
			s-1.797,4-4,4h-4h-72v16h64v56H384c-19.516,0-35.805,14.043-39.305,32.555C321.68,300.082,304,320.016,304,344h16
			c0-17.645,14.352-32,32-32c4.422,0,8-3.582,8-8c0-13.234,10.766-24,24-24h7.984c0,1.055,0.211,2.102,0.617,3.078L424.65,360
			H279.315L311.367,283.078z M462.641,460.438c-1.516,2.266-3.938,3.563-6.656,3.563h-208c-2.727,0-5.148-1.297-6.664-3.563
			c-1.508-2.262-1.773-5-0.727-7.512L272.648,376h158.669l32.05,76.926C464.414,455.438,464.148,458.176,462.641,460.438z"/>
	</g>
</g>
<g>
	<g>
		<rect x="400" y="392" width="16" height="16"/>
	</g>
</g>
<g>
	<g>
		<rect x="352" y="416" width="16" height="16"/>
	</g>
</g>
<g>
	<g>
		<rect x="288" y="400" width="16" height="16"/>
	</g>
</g>
<g>
	<g>
		<path d="M400,89.136V62.864c13.764-3.578,24-15.998,24-30.864c0-17.645-14.352-32-32-32c-14.87,0-27.287,10.238-30.864,24h-26.272
			C331.287,10.238,318.87,0,304,0c-17.648,0-32,14.355-32,32s14.352,32,32,32c14.87,0,27.287-10.238,30.864-24h26.272
			c2.909,11.19,11.672,19.955,22.864,22.864v26.271c-13.764,3.578-24,15.998-24,30.864c0,17.645,14.352,32,32,32s32-14.355,32-32
			C424,105.133,413.764,92.713,400,89.136z M304,48c-8.82,0-16-7.176-16-16s7.18-16,16-16s16,7.176,16,16S312.82,48,304,48z M376,32
			c0-8.824,7.18-16,16-16s16,7.176,16,16s-7.18,16-16,16S376,40.824,376,32z M392,136c-8.82,0-16-7.176-16-16s7.18-16,16-16
			s16,7.176,16,16S400.82,136,392,136z"/>
	</g>
</g>
<g>
	<g>
		<rect x="448" y="104" width="16" height="16"/>
	</g>
</g>
<g>
	<g>
		<rect x="320" y="80" width="16" height="16"/>
	</g>
</g>
<g>
	<g>
		<rect x="464" width="16" height="16"/>
	</g>
</g>
<g>
	<g>
		<rect x="64" y="88" width="144" height="16"/>
	</g>
</g>
<g>
	<g>
		<rect x="32" y="144" width="232" height="16"/>
	</g>
</g>
<g>
	<g>
		<rect x="32" y="176" width="96" height="16"/>
	</g>
</g>
<g>
	<g>
		<rect x="152" y="176" width="112" height="16"/>
	</g>
</g>
<g>
	<g>
		<rect x="32" y="208" width="56" height="16"/>
	</g>
</g>
<g>
	<g>
		<rect x="104" y="208" width="80" height="16"/>
	</g>
</g>
<g>
	<g>
		<rect x="200" y="208" width="64" height="16"/>
	</g>
</g>
<g>
	<g>
		<path d="M176,312H40c-4.422,0-8,3.582-8,8v112c0,4.418,3.578,8,8,8h136c4.422,0,8-3.582,8-8V320C184,315.582,180.422,312,176,312z
			 M168,424H48v-96h120V424z"/>
	</g>
</g>
<g>
	<g>
		<rect x="64" y="376" width="16" height="40"/>
	</g>
</g>
<g>
	<g>
		<rect x="88" y="392" width="16" height="24"/>
	</g>
</g>
<g>
	<g>
		<rect x="112" y="352" width="16" height="64"/>
	</g>
</g>
<g>
	<g>
		<rect x="136" y="336" width="16" height="80"/>
	</g>
</g>
<g>
	<g>
		<rect x="32" y="240" width="232" height="16"/>
	</g>
</g>
<g>
	<g>
		<rect x="32" y="272" width="96" height="16"/>
	</g>
</g>
<g>
	<g>
		<rect x="152" y="272" width="112" height="16"/>
	</g>
</g>
<g>
</g>
<g>
</g>
<g>
</g>
<g>
</g>
<g>
</g>
<g>
</g>
<g>
</g>
<g>
</g>
<g>
</g>
<g>
</g>
<g>
</g>
<g>
</g>
<g>
</g>
<g>
</g>
<g>
</g>
</svg>
