<?xml version="1.0" encoding="iso-8859-1"?>
<!-- Generator: Adobe Illustrator 19.0.0, SVG Export Plug-In . SVG Version: 6.00 Build 0)  -->
<svg version="1.1" baseProfile="basic" id="Calque_1"
	 xmlns="http://www.w3.org/2000/svg" xmlns:xlink="http://www.w3.org/1999/xlink" x="0px" y="0px" viewBox="0 0 139.493 296.985"
	 xml:space="preserve">
<path id="fleche" style="fill:#FF0000;" d="M-531.661,33.212c0-1.443,0.634-2.87,1.851-3.837c2.118-1.679,5.195-1.325,6.874,0.792
	l41.471,52.276l41.47-52.276c1.68-2.117,4.756-2.471,6.874-0.792c2.118,1.68,2.471,4.755,0.792,6.874l-45.303,57.107
	c-0.928,1.169-2.34,1.852-3.833,1.852c-1.493,0-2.905-0.682-3.833-1.852l-45.304-57.107
	C-531.314,35.35-531.661,34.278-531.661,33.212z"/>
<path id="barreS" style="fill:#FF0000;" d="M-426.253-39.331h-92.786c-2.393,0-4.333-1.94-4.333-4.333v0
	c0-2.393,1.94-4.333,4.333-4.333h92.786c2.393,0,4.333,1.94,4.333,4.333v0C-421.919-41.271-423.859-39.331-426.253-39.331z"/>
<g id="degradeM">
	<linearGradient id="XMLID_5_" gradientUnits="userSpaceOnUse" x1="-541.6732" y1="-150.5058" x2="-541.6732" y2="-325.4551">
		<stop  offset="0" style="stop-color:#FFFF00"/>
		<stop  offset="0.2161" style="stop-color:#FFFF3A;stop-opacity:0.7839"/>
		<stop  offset="0.7615" style="stop-color:#FFFFC6;stop-opacity:0.2385"/>
		<stop  offset="1" style="stop-color:#FFFFFF;stop-opacity:0"/>
	</linearGradient>
	<path id="XMLID_4_" style="fill:url(#XMLID_5_);" d="M-591.604-325.455l-0.53,112.953c0,1.066,0.346,2.138,1.059,3.037
		l45.304,57.107c0.928,1.169,2.34,1.852,3.833,1.852c1.493,0,2.905-0.682,3.833-1.852l45.303-57.107
		c0.598-0.728,1.06-2.233,1.06-3.037l0.53-112.953H-591.604z"/>
</g>
<g id="degradeS">
	<linearGradient id="XMLID_6_" gradientUnits="userSpaceOnUse" x1="-292.7797" y1="-75.4698" x2="-292.7797" y2="-177.5044">
		<stop  offset="0" style="stop-color:#00FF00"/>
		<stop  offset="0.2161" style="stop-color:#3AFF3A;stop-opacity:0.7839"/>
		<stop  offset="0.7615" style="stop-color:#C6FFC6;stop-opacity:0.2385"/>
		<stop  offset="1" style="stop-color:#FFFFFF;stop-opacity:0"/>
	</linearGradient>
	<path id="XMLID_3_" style="fill:url(#XMLID_6_);" d="M-342.843-177.504l-0.265,40.038c0,1.066,0.346,2.138,1.059,3.037
		l45.304,57.107c0.928,1.169,2.34,1.852,3.833,1.852c1.493,0,2.905-0.682,3.833-1.852l45.303-57.107
		c0.598-0.728,1.06-2.233,1.06-3.037l0.265-40.038H-342.843z"/>
</g>
<g id="degradeL">
	<linearGradient id="XMLID_7_" gradientUnits="userSpaceOnUse" x1="-305.9843" y1="286.5161" x2="-305.9843" y2="41.8149">
		<stop  offset="0" style="stop-color:#FF0000"/>
		<stop  offset="0.2161" style="stop-color:#FF3A3A;stop-opacity:0.7839"/>
		<stop  offset="0.7615" style="stop-color:#FFC6C6;stop-opacity:0.2385"/>
		<stop  offset="1" style="stop-color:#FFFFFF;stop-opacity:0"/>
	</linearGradient>
	<path id="XMLID_2_" style="fill:url(#XMLID_7_);" d="M-355.915,41.815l-0.53,182.705c0,1.066,0.346,2.138,1.059,3.037
		l45.304,57.107c0.928,1.169,2.34,1.852,3.833,1.852c1.493,0,2.905-0.682,3.833-1.852l45.303-57.107
		c0.598-0.728,1.06-2.233,1.06-3.037l0.53-182.705H-355.915z"/>
</g>
<linearGradient id="degradegris_2_" gradientUnits="userSpaceOnUse" x1="-215.9935" y1="19.345" x2="-115.6014" y2="19.345">
	<stop  offset="0" style="stop-color:#1A1A1A"/>
	<stop  offset="0.1313" style="stop-color:#393939;stop-opacity:0.8687"/>
	<stop  offset="0.7359" style="stop-color:#C6C6C6;stop-opacity:0.2641"/>
	<stop  offset="1" style="stop-color:#FFFFFF;stop-opacity:0"/>
</linearGradient>
<path id="degradegris" style="fill:url(#degradegris_2_);" d="M-215.993-9.205c0-1.443,0.634-2.87,1.851-3.837
	c2.118-1.679,5.195-1.325,6.874,0.792l41.471,52.276l41.47-52.276c1.68-2.117,4.756-2.471,6.874-0.792
	c2.118,1.68,2.471,4.755,0.792,6.874l-45.303,57.107c-0.928,1.169-2.34,1.852-3.833,1.852c-1.493,0-2.905-0.682-3.833-1.852
	l-45.304-57.107C-215.647-7.067-215.993-8.139-215.993-9.205z"/>
</svg>
